<svg xmlns="http://www.w3.org/2000/svg" version="1.1" xmlns:xlink="http://www.w3.org/1999/xlink" xmlns:svgjs="http://svgjs.dev/svgjs" width="1000" height="1125" viewBox="0 0 1000 1125"><g transform="matrix(1,0,0,1,0,0)"><svg viewBox="0 0 320 360" data-background-color="#f3f3f5" preserveAspectRatio="xMidYMid meet" height="1125" width="1000" xmlns="http://www.w3.org/2000/svg" xmlns:xlink="http://www.w3.org/1999/xlink"><g id="tight-bounds" transform="matrix(1,0,0,1,0,0)"><svg viewBox="0 0 320 360" height="360" width="320"><g><svg></svg></g><g><svg viewBox="0 0 320 360" height="360" width="320"><g><path xmlns="http://www.w3.org/2000/svg" d="M219.58 41.008c0.707 0 6.365 2.829 9.547 3.89-1.061 0.354-3.536-0.707-6.365-1.768 0.707 0 2.122 0.354 3.536 1.06-0.707-0.707-6.011-2.475-6.718-3.182M166.895 30.047c1.061-0.354 13.436 1.414 19.094 1.768 0.354-0.354-0.707-0.354-2.122-0.707 1.768-0.354 5.304 0.707 7.779 1.06-7.425 0.354-15.558-1.768-22.629-1.06-2.475 0-0.707-0.707-2.122-1.061M156.641 30.047c6.365 0 11.315 0 2.121 0.707-1.061-0.354-2.475-0.354-2.121-0.707M256.707 59.395c0.707 0 3.536 3.182 4.95 4.243-0.354 0.354-3.182-2.475-4.596-3.536 0.354 0.354 0 0-0.354-0.707M249.635 54.798c-2.829-2.475-3.889-2.475-4.243-3.889 2.475 1.414 4.243 2.829 4.243 3.889M204.022 32.522c0.354-0.354 1.061 0.354 2.829 0.707-2.122-0.354-1.768 0-1.061 0.707-2.475-0.354-3.182-0.707-2.475-1.414 1.414 0.707 1.768 0.354 0.707 0M103.602 36.765c0-0.354 1.414-1.061 2.475-1.414-1.061 0.707-0.707 1.061 1.061 0.353 0 0.354-2.122 1.061-3.536 1.768 0.707-0.354 1.414-1.414 0-0.707M211.094 28.986c-1.061 0.354-4.95-1.768-8.84-2.475-2.122-0.707 8.486 1.768 8.84 2.475M2.475 203.66c2.122 8.84 0.707 8.486 0 0M2.829 150.621c0.354-1.414 0.707-5.304 1.06-4.95-1.061 8.486-2.829 12.376-3.182 18.74 1.061-5.657-0.354 3.182-0.707 5.304 0.354 2.829 0.354-1.768 1.061-1.06 0.707 1.061-1.414 15.912-0.707 7.779-0.707 7.425 0 15.558 1.414 17.679-1.768 11.315 7.072 36.773 8.84 42.077 0.354 0.354 0-1.768 0.707-0.353 0.707 4.597 3.889 7.779 4.95 12.729 1.061 1.414 5.304 9.193 6.011 10.962 1.414 2.829 2.122 2.475 3.536 5.303 4.243 8.133 10.961 15.912 17.326 23.337 20.508 24.044 51.978 43.845 86.984 50.918 35.006 7.425 71.779 2.122 100.419-11.669 1.768-1.061 1.414-1.414 3.536-2.122 9.901-3.182 21.923-13.436 28.641-17.326 3.182-3.536 11.669-9.547 12.73-13.082 6.011-4.95 12.022-13.083 15.204-18.387 1.768-2.829 3.182-2.829 3.889-4.597-0.354 0 5.657-7.425 7.426-11.668-0.707 0-1.768 2.122-1.768 0 12.729-24.398 19.801-57.282 15.911-79.912 0.707 27.934-6.365 59.05-19.801 78.851-6.011 12.729-18.387 26.519-29.701 36.42-1.768 1.768-3.536 3.889-5.658 5.304-6.718 5.657-14.144 10.254-21.922 14.497-18.387 10.254-38.895 19.094-62.94 19.447 41.37-3.536 78.497-24.398 99.006-49.856-15.558 15.204-22.276 21.215-39.602 30.055-1.414 2.475-13.083 7.425-20.862 9.547 4.597-2.122 14.144-5.657 17.326-8.486-25.812 12.376-54.453 19.448-81.326 15.558 10.254 0 24.751 0.354 38.541-2.121 2.122-0.707 3.182-1.414 5.658-1.768 26.873-6.011 52.685-19.094 71.072-37.481-10.608 9.547-26.519 20.862-36.774 24.398 9.547-5.304 26.873-15.558 32.53-23.337-11.315 11.315-32.53 22.63-45.966 27.58-2.122 0.354 1.414-1.414-2.122 0-4.243 1.061-2.475 1.061-3.536 1.768-16.265 4.597-35.006 8.486-50.563 7.072-2.829-0.354-3.889-1.061-6.365-1.061-2.829-0.354-5.304-0.354-8.486-0.354-12.376-1.414-25.812-6.365-35.713-10.607-5.304-2.475-10.608-4.243-15.912-7.426-4.243-2.475-7.779-5.304-11.314-8.132-13.436-9.901-24.751-19.801-35.36-33.945-19.094-26.519-28.994-59.757-27.58-92.641 1.414-32.884 14.497-65.061 35.359-88.752-1.061 1.061 1.414-2.475 3.536-4.596 0 0.707-0.354 1.768 2.122-0.707 2.122-2.475-0.707-0.707 0.353-2.122 21.923-24.044 60.111-43.492 99.36-44.199 1.414-1.061 3.889-2.475 6.718-1.768 0 0.354-1.768 0.354-1.768 0.354 3.889-0.354 7.425-0.354 9.193 0.353 0.354-0.354-1.414-0.707 0-0.707 2.475 0.707 3.182 0 4.597 0.707-1.061 0-2.122 0-2.829 0.354 8.84 0 14.497 2.122 23.337 2.829-4.597-1.061-5.657-1.061-9.193-2.122 3.889 0.707 5.657 1.414 7.425 1.061-0.707 0-0.354-1.061 0.354-0.707 7.072 1.768 7.779 2.475 15.204 4.95 0.707-0.707-3.182-1.061-4.243-2.122 7.072 2.475 13.436 4.243 17.68 7.072-1.414-1.061-5.657-2.475-8.84-3.889-0.354 0.354 1.061 0.707 1.414 1.414-3.536-1.768-8.486-3.536-13.436-4.243 4.243 1.061 7.072 2.475 8.84 3.182-3.889-0.707-8.84-3.182-14.498-4.243 9.193 2.829 26.519 9.193 37.127 14.851-3.889-2.475-8.486-4.243-10.961-5.657 2.122 0.354 4.597 1.768 4.597 1.06 2.475 1.061 5.657 3.536 7.425 3.89-3.182-2.122-9.547-5.304-11.668-6.365 26.519 12.022 50.21 32.177 65.414 57.989 1.414 2.475 3.536 8.133 5.304 8.84-0.354-1.768-1.768-2.829-3.182-5.657 0.707 0 0.707-1.061 0-2.122-1.414-1.768 0 1.414-1.415-0.354-6.365-11.669-14.144-21.923-26.165-33.237 6.718 6.365 1.768 1.768 0.353-0.354 9.193 8.133 19.801 21.923 24.398 28.995-0.707-1.061-1.061-1.768-0.707-1.768 8.486 14.497 13.79 27.58 19.094 46.32 0.354 0.354 0-1.414 0.707-0.353 3.536 14.851 4.597 27.227 4.243 38.541 2.829-19.094-3.536-48.796-14.851-72.133-1.414-2.829-1.414-0.707-2.829-3.889 0-1.061-1.061-3.182-1.768-4.597-14.144-23.337-31.47-39.956-51.978-53.038 1.414 0.707 4.243 2.829 4.244 2.475-38.188-25.105-82.387-28.641-118.807-20.862-2.475 1.061-3.536 2.122-6.365 3.536 5.304-1.768 8.486-2.122 13.437-3.183 1.061-1.061-4.597 0.354-2.122-0.707 0.354 0.354 4.95-0.707 6.011-0.353 0 0.354-1.414 0.707-1.768 1.06 11.669-2.475 23.691-2.829 33.945-2.121-6.011 0.354-16.972-0.707-20.508 1.061 3.536-0.354 8.486-0.707 11.668-0.354-4.243 0-12.022 0.354-15.558 0.707-0.354-0.354 5.657-1.061 1.768-1.06-1.768 0.354-4.597 0.354-5.657 1.414-30.409 2.829-60.111 18.74-80.973 37.481-4.243 3.536-9.193 7.425-12.375 11.314-7.779 8.84-12.729 17.68-18.387 25.459 3.536-7.425 11.315-18.74 20.508-28.287 9.193-9.547 19.094-17.68 24.398-21.923 0 1.414 8.486-5.304 11.669-7.425-2.122 1.768 1.414-0.707 2.121-0.354 11.315-6.718 20.508-9.193 30.763-13.083-2.475 0.707-4.597 1.414-4.951 1.061 2.475-0.707 3.889-1.414 3.536-1.768-9.901 2.829-25.459 9.547-37.834 16.972 22.276-15.204 50.564-24.398 78.497-24.751 27.934-0.707 55.16 6.365 76.729 17.68 14.497 6.365 28.287 18.033 39.249 29.348 3.182 2.829 0.707-0.707 5.304 4.243-1.414-0.707-2.475-1.414-0.707 0.707 2.829 3.182-0.707-2.475 3.889 3.182-0.354 0-1.768-1.768-1.768-1.061 12.376 10.961 21.923 30.762 27.58 43.846-1.414-5.304-4.95-12.729-7.779-18.033 8.486 15.558 11.315 24.751 14.851 38.541 1.414 1.061-0.707-4.95 0.707-2.121 0.354 2.122 0.707 8.84 2.122 9.9-1.061-6.718-2.829-14.851-4.243-16.265 1.061 0.707-1.768-8.133-3.536-10.254-0.707-5.657-5.657-15.558-9.901-22.984-15.204-29.702-42.431-54.099-72.839-67.536 0-0.707-1.768-1.414-2.476-2.121-30.055-12.729-66.122-16.265-100.773-8.133-35.006 8.486-67.889 28.641-91.227 57.636 1.061-3.536 9.901-10.254 10.255-13.083-10.254 10.961-21.215 25.459-28.641 41.016-7.779 15.558-12.022 31.47-13.79 43.138" fill="#4a55a2" fill-rule="nonzero" stroke="none" stroke-width="1" stroke-linecap="butt" stroke-linejoin="miter" stroke-miterlimit="10" stroke-dasharray="" stroke-dashoffset="0" font-family="none" font-weight="none" font-size="none" text-anchor="none" style="mix-blend-mode: normal" data-fill-palette-color="tertiary"></path></g><g transform="matrix(1,0,0,1,70.08999999999999,90.08999999999999)"><svg viewBox="0 0 179.82000000000002 179.82000000000002" height="179.82000000000002" width="179.82000000000002"><g><svg viewBox="0 0 179.82000000000002 179.82000000000002" height="179.82000000000002" width="179.82000000000002"><g><svg viewBox="0 0 179.82000000000002 179.82000000000002" height="179.82000000000002" width="179.82000000000002"><g id="textblocktransform"><svg viewBox="0 0 179.82000000000002 179.82000000000002" height="179.82000000000002" width="179.82000000000002" id="textblock"><g><svg viewBox="0 0 179.82000000000002 179.82000000000002" height="179.82000000000002" width="179.82000000000002"><g transform="matrix(1,0,0,1,47.526019535678344,52.17072733424131)"><svg viewBox="0 0 84.76796092864333 75.4785453315174" height="75.4785453315174" width="84.76796092864333"><g><svg xmlns="http://www.w3.org/2000/svg" xmlns:xlink="http://www.w3.org/1999/xlink" version="1.1" x="0" y="0" viewBox="1.2269445657730103 6.569580078125 97.55015563964844 86.8599853515625" style="enable-background:new 0 0 100 100;" xml:space="preserve" height="75.4785453315174" width="84.76796092864333" class="icon-o-0" data-fill-palette-color="accent" id="o-0"><path d="M98.727 26c0-2.84-2.31-5.14-5.14-5.14H66.167V13.7c0-3.93-3.2-7.13-7.13-7.13H40.967c-3.93 0-7.13 3.2-7.13 7.13v7.16H6.407c-2.83 0-5.13 2.3-5.13 5.13L1.227 50.93c-0.01 0.77 0.43 1.47 1.12 1.8 1.14 0.55 2.29 1.08 3.47 1.58v33.99c0 2.83 2.3 5.13 5.14 5.13h78.09c2.83 0 5.14-2.3 5.14-5.13V53.78c1.2-0.54 2.37-1.12 3.52-1.73 0.66-0.34 1.07-1.03 1.07-1.77L98.727 26zM37.837 13.7c0-1.72 1.4-3.13 3.13-3.13h18.07c1.69 0 3.13 1.44 3.13 3.13v7.16H37.837V13.7zM55.367 60.09v4.61H44.627v-4.61-2.59h10.74V60.09zM91.047 50.82c-9.16 3.98-19.79 6.36-31.68 7.09V57.24c0-2.06-1.67-3.74-3.73-3.74H44.367c-2.06 0-3.74 1.68-3.74 3.74v0.7c-11.86-0.65-22.6-2.94-32.02-6.8-1.15-0.47-2.27-0.96-3.38-1.47l0.05-23.67c0-0.62 0.52-1.14 1.13-1.14h29.43 28.33 29.42c0.62 0 1.14 0.52 1.14 1.14l0.05 23.07C93.567 49.68 92.317 50.26 91.047 50.82z" fill="#4a55a2" data-fill-palette-color="accent"></path></svg></g></svg></g><g><path d="M22.378 73.908c-0.464-1.898-0.977-3.378-1.539-4.44-0.564-1.055-1.355-1.938-2.373-2.647-1.017-0.71-2.479-1.371-4.383-1.984v0l-9.224-3.057 0.038-2.596-1.493-0.714-2.872 8.724 1.49 0.724 1.625-2.233 11.508 3.788c1.065 0.351 2.027 0.95 2.885 1.798 0.855 0.84 1.561 1.913 2.121 3.222v0z" fill="#4a55a2" data-fill-palette-color="primary"></path><path d="M26.488 54.639c1.042-1.74 1.617-3.465 1.726-5.176 0.109-1.711-0.229-3.283-1.015-4.715-0.795-1.43-1.981-2.618-3.559-3.564v0c-1.716-1.028-3.373-1.601-4.969-1.719-1.594-0.109-3.06 0.23-4.399 1.016-1.345 0.783-2.499 1.978-3.462 3.585v0c-1.062 1.774-1.636 3.504-1.722 5.19-0.086 1.686 0.286 3.227 1.116 4.624 0.827 1.403 2.044 2.585 3.651 3.548v0c1.573 0.942 3.137 1.491 4.694 1.648 1.563 0.161 3.03-0.127 4.402-0.862 1.368-0.73 2.547-1.922 3.537-3.575zM12.133 45.68c0.624-1.043 1.506-1.665 2.644-1.868 1.144-0.199 2.332-0.118 3.563 0.244 1.24 0.359 2.382 0.851 3.425 1.475v0c3.761 2.252 4.845 4.709 3.252 7.37v0c-0.61 1.02-1.472 1.635-2.584 1.846-1.106 0.214-2.274 0.145-3.503-0.208-1.225-0.358-2.357-0.848-3.393-1.468v0c-1.797-1.076-3.029-2.221-3.696-3.434-0.661-1.21-0.564-2.529 0.292-3.957z" fill="#4a55a2" data-fill-palette-color="primary"></path><path d="M38.856 38.466c1.316-1.266 2.247-2.492 2.791-3.678 0.54-1.181 0.732-2.274 0.577-3.279-0.156-1.005-0.604-1.892-1.345-2.661v0c-0.465-0.484-1.038-0.841-1.717-1.073-0.67-0.231-1.388-0.276-2.156-0.135-0.767 0.142-1.506 0.522-2.215 1.14v0l-0.091-0.094c0.301-0.588 0.465-1.192 0.491-1.814 0.026-0.622-0.064-1.21-0.272-1.765-0.208-0.545-0.496-1.009-0.864-1.391v0c-0.54-0.561-1.207-0.911-2.002-1.05-0.805-0.139-1.726 0.012-2.765 0.452-1.044 0.445-2.158 1.238-3.344 2.379v0c-1.466 1.41-3.199 3.39-5.2 5.939v0l1.086 1.331 2.155-1.318 8.951 9.303-1.107 2.336 0.931 1.243zM26.296 27.925c0.2-0.276 0.409-0.519 0.627-0.729v0c0.905-0.87 1.772-1.281 2.602-1.231 0.83 0.04 1.576 0.403 2.237 1.09v0c0.456 0.474 0.763 0.957 0.919 1.449 0.152 0.487 0.166 1.01 0.041 1.568v0l-2.264 2.178zM31.714 33.557l1.582-1.523c0.518-0.498 1.079-0.82 1.686-0.964 0.596-0.145 1.175-0.124 1.736 0.062 0.566 0.182 1.061 0.493 1.485 0.933v0c0.396 0.411 0.653 0.877 0.771 1.397 0.123 0.515 0.096 1.039-0.08 1.572-0.176 0.533-0.502 1.028-0.976 1.484v0l-1.742 1.676z" fill="#4a55a2" data-fill-palette-color="primary"></path><path d="M48.118 11.638l2.805-0.168 4.706 12.292-1.957 1.731 0.419 1.49 8.549-3.274-0.378-1.635-2.741 0.306-1.973-5.154 7.307-2.798 1.938 5.06-1.93 1.72 0.382 1.503 8.596-3.291-0.435-1.613-2.693 0.287-4.768-12.451 2.008-1.6-0.38-1.612-8.662 3.317 0.399 1.605 2.776-0.157 1.847 4.824-7.307 2.798-1.873-4.89 1.999-1.596-0.38-1.612-8.596 3.292z" fill="#4a55a2" data-fill-palette-color="primary"></path><path d="M84.877 18.939c2.023-0.14 3.767-0.654 5.234-1.543 1.466-0.889 2.562-2.065 3.289-3.528 0.719-1.47 1.016-3.122 0.888-4.958v0c-0.138-1.996-0.615-3.682-1.43-5.059-0.822-1.37-1.938-2.379-3.349-3.029-1.412-0.656-3.052-0.919-4.92-0.79v0c-2.063 0.143-3.81 0.661-5.243 1.554-1.432 0.893-2.484 2.08-3.156 3.559-0.678 1.48-0.953 3.155-0.823 5.024v0c0.127 1.828 0.57 3.426 1.331 4.794 0.761 1.374 1.836 2.413 3.224 3.118 1.381 0.705 3.033 0.991 4.955 0.858zM84.021 2.04c1.212-0.084 2.227 0.283 3.044 1.101 0.818 0.825 1.43 1.846 1.837 3.063 0.414 1.223 0.664 2.441 0.748 3.653v0c0.303 4.374-1.093 6.667-4.188 6.882v0c-1.185 0.082-2.183-0.273-2.991-1.065-0.808-0.785-1.419-1.783-1.832-2.993-0.407-1.21-0.652-2.418-0.736-3.623v0c-0.145-2.09 0.09-3.755 0.705-4.995 0.615-1.234 1.752-1.908 3.413-2.023z" fill="#4a55a2" data-fill-palette-color="primary"></path><path d="M105.75 20.109l0.523-1.66-2.162-1.342 0.983-4.558 1.762 0.38 1.055 3.659c0.416 1.477 1.006 2.676 1.769 3.596 0.77 0.922 1.827 1.527 3.172 1.817v0c0.899 0.194 1.725 0.252 2.477 0.174v0l0.633-1.357-0.483-0.249c-0.581-0.297-1.07-0.66-1.465-1.088-0.4-0.437-0.743-0.916-1.029-1.438-0.279-0.52-0.628-1.245-1.045-2.173v0l-1.516-3.386c0.763-0.096 1.503-0.328 2.221-0.696 0.725-0.366 1.339-0.841 1.843-1.426 0.511-0.584 0.843-1.233 0.997-1.948v0c0.361-1.673-0.037-3.013-1.193-4.018-1.152-0.997-2.997-1.77-5.538-2.317v0c-0.998-0.215-2.276-0.416-3.836-0.601-1.56-0.186-2.924-0.311-4.091-0.378v0l-0.523 1.659 2.462 1.098-2.699 12.512-2.723 0.35-0.542 1.459zM107.001 3.709c0.033 0.007 0.156 0.027 0.369 0.059 0.206 0.031 0.447 0.076 0.723 0.136v0c0.748 0.161 1.365 0.456 1.849 0.883 0.491 0.429 0.827 0.944 1.006 1.546 0.174 0.594 0.189 1.226 0.044 1.895v0c-0.17 0.788-0.516 1.403-1.037 1.847-0.528 0.442-1.165 0.734-1.909 0.875v0l-2.491-0.537z" fill="#4a55a2" data-fill-palette-color="primary"></path><path d="M124.776 8.339l2.079 1.903-5.549 11.902-2.651-0.225-0.773 1.373 8.287 3.864 0.892-1.507-2.085-1.749 5.571-11.948 2.614 0.375 0.897-1.471-8.388-3.911z" fill="#4a55a2" data-fill-palette-color="primary"></path><path d="M130.175 26.731l-1.356 2.078 11.33 8.355 4.007-3.99-1.254-1.287-4.108 1.788-5.307-4.189 16.913-5.17 1.047-1.318-11.485-8.469-3.239 4.155 1.485 1.533 2.996-2.333 5.139 3.79z" fill="#4a55a2" data-fill-palette-color="primary"></path><path d="M147.536 46.408c1.272 1.579 2.692 2.716 4.26 3.409 1.568 0.694 3.16 0.921 4.775 0.679 1.617-0.251 3.142-0.953 4.575-2.107v0c1.558-1.255 2.669-2.611 3.331-4.067 0.654-1.458 0.843-2.951 0.569-4.479-0.269-1.533-0.992-3.029-2.167-4.488v0c-1.297-1.61-2.722-2.747-4.273-3.411-1.552-0.664-3.127-0.848-4.725-0.552-1.602 0.291-3.133 1.023-4.591 2.198v0c-1.427 1.15-2.484 2.428-3.171 3.834-0.691 1.41-0.929 2.887-0.713 4.428 0.212 1.536 0.922 3.055 2.13 4.556zM160.908 36.038c0.762 0.946 1.042 1.989 0.838 3.127-0.209 1.143-0.696 2.229-1.462 3.259-0.766 1.04-1.622 1.94-2.568 2.702v0c-3.414 2.75-6.094 2.917-8.04 0.502v0c-0.745-0.925-1.025-1.946-0.838-3.062 0.182-1.112 0.651-2.184 1.407-3.215 0.76-1.026 1.61-1.918 2.551-2.676v0c1.631-1.314 3.131-2.074 4.5-2.28 1.363-0.202 2.567 0.346 3.612 1.643z" fill="#4a55a2" data-fill-palette-color="primary"></path><path d="M170.176 49.516l0.077 2.782-11.977 4.98-1.782-1.898-1.481 0.452 2.951 7.095 1.604-0.471-0.372-2.703 8.443-3.511-7.732 12.486 1.73 2.716 14.375-5.978 1.652 1.953 1.624-0.37-2.939-7.067-1.616 0.388 0.259 2.826-9.019 3.751 8.033-12.6-2.204-5.3z" fill="#4a55a2" data-fill-palette-color="primary"></path><path d="M21.387 122.876l0.368 1.983-8.368 4.273-1.352-1.209-1.037 0.383 3.178 6.224 1.109-0.396-0.515-2.406 3.058-1.562 1.03 2.018-1.512 1.135 0.888 1.118 4.295-1.73-0.961-1.217-1.435 0.202-1.094-2.144 4.367-2.23 1.878 3.677-1.748 1.447 0.407 1.262 3.606-1.265-5.075-9.937z" fill="#4a55a2" data-fill-palette-color="primary"></path><path d="M27.257 135.971c0.22 0.329 0.464 0.574 0.732 0.735 0.259 0.158 0.521 0.237 0.788 0.237 0.263-0.006 0.503-0.081 0.72-0.227v0c0.212-0.142 0.364-0.332 0.455-0.57 0.093-0.248 0.111-0.522 0.056-0.824-0.05-0.305-0.18-0.614-0.389-0.927v0c-0.201-0.302-0.427-0.53-0.676-0.687-0.253-0.162-0.508-0.246-0.763-0.254-0.255-0.007-0.489 0.06-0.701 0.202v0c-0.352 0.235-0.556 0.557-0.614 0.966-0.067 0.408 0.064 0.857 0.392 1.349zM16.905 139.527l3.181 4.766 1.15-0.635-0.52-1.65 5.955-3.975 0.114-0.573-2.085-2.688-1.203 0.537 0.152 1.751-4.314 2.879-1.272-1.052z" fill="#4a55a2" data-fill-palette-color="primary"></path><path d="M24.609 149.7l1.108-0.641-0.516-1.412 3.473-2.959c0.663 0.053 1.203 0.325 1.62 0.815v0c0.283 0.332 0.393 0.689 0.329 1.069-0.069 0.385-0.346 0.784-0.831 1.198v0l-2.598 2.214-0.916-0.158-0.937 0.732 2.972 3.488 1.062-0.694-0.581-1.49 3.587-3.057c0.746-0.636 1.164-1.279 1.254-1.928 0.091-0.659-0.123-1.293-0.641-1.902v0c-0.37-0.434-0.826-0.747-1.368-0.938-0.542-0.191-1.157-0.297-1.846-0.318v0l-0.062-0.12 1.035-0.617 0.047-0.411-2.62-2.53-1.082 0.671 0.464 1.615-3.994 3.403-1.432-0.764-1.002 0.656z" fill="#4a55a2" data-fill-palette-color="primary"></path><path d="M32.063 157.712c0.484 0.425 0.984 0.675 1.498 0.751 0.505 0.076 1.036 0.051 1.594-0.075v0l0.07 0.088-0.044 0.096c-0.226 0.4-0.312 0.793-0.258 1.18 0.059 0.391 0.283 0.757 0.671 1.098v0c0.288 0.252 0.555 0.442 0.801 0.568 0.247 0.136 0.563 0.28 0.948 0.43v0l1.008-0.857-0.214-0.322c-0.201-0.31-0.336-0.554-0.405-0.73-0.069-0.176-0.073-0.359-0.014-0.548 0.054-0.194 0.196-0.422 0.426-0.685v0l6.595-7.517-0.038-0.583-2.776-2.073-0.962 0.79 0.733 1.715-0.744 0.848-0.593 0.859-0.053-0.046c-0.04-0.178-0.149-0.39-0.327-0.635-0.168-0.246-0.346-0.451-0.532-0.615v0c-0.686-0.602-1.466-0.956-2.339-1.06-0.882-0.104-1.749 0.019-2.602 0.37-0.857 0.356-1.597 0.889-2.222 1.601v0c-0.54 0.616-0.915 1.252-1.124 1.907-0.209 0.656-0.237 1.283-0.084 1.883 0.153 0.599 0.482 1.12 0.987 1.562zM38.088 152.387c0.212 0.186 0.373 0.461 0.482 0.825 0.114 0.368 0.146 0.78 0.095 1.236v0l-2.683 3.058c-0.3-0.004-0.603-0.056-0.909-0.155-0.306-0.099-0.565-0.241-0.778-0.427v0c-0.288-0.252-0.455-0.56-0.502-0.923-0.048-0.373 0.016-0.772 0.192-1.198 0.176-0.435 0.459-0.874 0.849-1.318v0c0.553-0.631 1.127-1.066 1.72-1.304 0.593-0.239 1.105-0.17 1.534 0.206z" fill="#4a55a2" data-fill-palette-color="primary"></path><path d="M48.901 155.948l0.978 1.148 0.175 6.97-1.617 2.938-1.709-0.194-0.662 0.889 5.47 3.011 0.664-0.934-1.223-1.351 1.729-3.141 5.811-3.457 1.324 0.142 0.746-0.957-4.165-2.292-0.727 0.967 1.013 1.167-3.807 2.468 0.019-4.587 1.292 0.136 0.755-0.952-5.285-2.909z" fill="#4a55a2" data-fill-palette-color="primary"></path><path d="M60.076 174.75c0.843 0.315 1.668 0.398 2.477 0.249 0.817-0.153 1.55-0.521 2.197-1.102 0.642-0.584 1.138-1.345 1.488-2.282v0c0.353-0.943 0.495-1.811 0.426-2.604-0.071-0.787-0.357-1.47-0.856-2.051-0.491-0.585-1.173-1.041-2.047-1.368v0c-0.742-0.278-1.529-0.357-2.362-0.239-0.83 0.112-1.599 0.441-2.305 0.987-0.704 0.54-1.232 1.281-1.585 2.224v0c-0.322 0.861-0.461 1.691-0.415 2.49 0.039 0.796 0.302 1.521 0.788 2.176 0.488 0.649 1.22 1.155 2.194 1.52zM62.806 166.965c0.748 0.28 1.131 0.867 1.147 1.763 0.012 0.886-0.188 1.883-0.602 2.989v0c-0.271 0.723-0.612 1.244-1.026 1.563-0.411 0.312-0.877 0.371-1.399 0.175v0c-0.736-0.275-1.144-0.822-1.224-1.64-0.083-0.812 0.093-1.8 0.528-2.964v0c0.287-0.767 0.646-1.325 1.077-1.672 0.427-0.356 0.927-0.427 1.499-0.214z" fill="#4a55a2" data-fill-palette-color="primary"></path><path d="M68.879 170.043l-0.919 4.067c-0.238 1.054-0.213 1.855 0.077 2.402 0.288 0.554 0.861 0.927 1.718 1.122v0c0.557 0.126 1.115 0.107 1.675-0.056 0.553-0.164 1.053-0.471 1.499-0.921v0l0.121 0.059-0.027 0.118c-0.108 0.478-0.037 0.88 0.213 1.204 0.25 0.325 0.644 0.548 1.181 0.669v0c0.347 0.078 0.688 0.121 1.024 0.129 0.329 0.006 0.689-0.017 1.078-0.067v0l0.446-1.241-0.341-0.18c-0.307-0.166-0.534-0.317-0.682-0.454-0.142-0.135-0.234-0.304-0.278-0.507-0.036-0.208-0.016-0.478 0.059-0.812v0l1.307-5.786-0.284-0.477-3.371-0.39-0.557 1.464 1.251 0.902-0.901 3.988c-0.278 0.164-0.54 0.274-0.786 0.329-0.253 0.053-0.543 0.043-0.871-0.032v0c-0.393-0.089-0.654-0.303-0.784-0.642-0.138-0.334-0.13-0.842 0.024-1.522v0l1.074-4.754-0.314-0.484-3.229-0.513-0.547 1.28z" fill="#4a55a2" data-fill-palette-color="primary"></path><path d="M84.245 179.664l0.262-1.401-2.376-0.734 0.306-3.047c0.173-0.509 0.412-0.913 0.719-1.213 0.313-0.299 0.657-0.43 1.031-0.392v0c0.394 0.04 0.813 0.234 1.258 0.582v0c0.319-0.218 0.573-0.462 0.762-0.733 0.195-0.264 0.311-0.579 0.348-0.947v0c0.04-0.394-0.061-0.738-0.301-1.033-0.234-0.293-0.574-0.463-1.022-0.507v0c-0.514-0.052-1.012 0.101-1.494 0.457-0.481 0.357-0.89 0.93-1.225 1.719v0l-0.195-0.07 0.391-1.884-0.287-0.363-3.391 0.004-0.326 1.232 1.498 0.809-0.531 5.28-1.599 0.406-0.291 1.186z" fill="#4a55a2" data-fill-palette-color="primary"></path><path d="M98.017 179.223c1.689-0.176 3.12-0.636 4.291-1.38 1.178-0.744 2.041-1.661 2.588-2.751 0.54-1.096 0.748-2.238 0.624-3.427v0c-0.192-1.843-0.943-3.28-2.252-4.311-1.31-1.038-3.421-1.405-6.332-1.1v0c-0.741 0.077-1.618 0.216-2.63 0.416-1.012 0.2-2.01 0.433-2.995 0.698v0l0.046 1.21 1.803 0.206 0.932 8.925-1.718 0.999-0.076 1.112zM95.994 167.992c0.14-0.021 0.249-0.043 0.327-0.064v0c0.118-0.033 0.247-0.056 0.388-0.071v0c1.135-0.119 2.116 0.029 2.942 0.442 0.826 0.413 1.471 0.997 1.934 1.752 0.458 0.762 0.733 1.594 0.828 2.496v0c0.081 0.775 0.007 1.521-0.222 2.24-0.229 0.719-0.677 1.343-1.343 1.872-0.661 0.521-1.563 0.842-2.705 0.961v0l-1.132 0.118z" fill="#4a55a2" data-fill-palette-color="primary"></path><path d="M114.119 176.369l-0.235-1.405-2.483 0.126-0.759-2.966c-0.013-0.537 0.073-0.999 0.259-1.386 0.192-0.389 0.47-0.63 0.833-0.723v0c0.384-0.098 0.844-0.06 1.381 0.114v0c0.225-0.314 0.379-0.631 0.464-0.95 0.093-0.315 0.093-0.651 0.001-1.009v0c-0.098-0.384-0.311-0.672-0.637-0.866-0.32-0.195-0.698-0.237-1.134-0.125v0c-0.501 0.128-0.916 0.442-1.245 0.942-0.329 0.5-0.516 1.179-0.561 2.035v0l-0.207 0.002-0.279-1.904-0.395-0.242-3.183 1.168 0.117 1.269 1.684 0.245 1.316 5.142-1.363 0.93 0.134 1.214z" fill="#4a55a2" data-fill-palette-color="primary"></path><path d="M120.304 174.608c0.624-0.229 1.205-0.564 1.744-1.005 0.533-0.439 0.922-0.936 1.169-1.492v0l-0.601-1.023c-0.304 0.341-0.624 0.608-0.96 0.803-0.336 0.195-0.722 0.372-1.157 0.532v0c-0.731 0.268-1.365 0.247-1.9-0.064-0.542-0.309-0.96-0.803-1.253-1.482v0l4.342-1.702c-0.027-0.19-0.086-0.476-0.175-0.858-0.099-0.386-0.177-0.657-0.235-0.815v0c-0.245-0.668-0.574-1.212-0.986-1.633-0.418-0.419-0.886-0.69-1.404-0.815-0.522-0.116-1.06-0.072-1.615 0.132v0c-0.7 0.257-1.3 0.706-1.801 1.348-0.505 0.65-0.828 1.416-0.969 2.298-0.141 0.881-0.039 1.792 0.306 2.731v0c0.347 0.945 0.818 1.691 1.412 2.238 0.588 0.549 1.234 0.888 1.939 1.015 0.711 0.125 1.426 0.056 2.144-0.208zM117.322 167.013c0.372-0.137 0.693-0.101 0.962 0.108 0.278 0.212 0.503 0.552 0.675 1.019v0c0.032 0.088 0.072 0.206 0.119 0.353 0.041 0.15 0.062 0.256 0.063 0.32v0l-2.198 1.054c-0.168-0.496-0.261-0.945-0.28-1.346-0.015-0.409 0.038-0.744 0.158-1.002 0.113-0.256 0.28-0.425 0.501-0.506z" fill="#4a55a2" data-fill-palette-color="primary"></path><path d="M126.861 171.739c0.397-0.197 0.731-0.453 1.002-0.768 0.268-0.321 0.465-0.647 0.592-0.98 0.136-0.33 0.195-0.626 0.178-0.887v0l0.121-0.027 0.09 0.113c0.281 0.34 0.581 0.566 0.899 0.678 0.324 0.109 0.723 0.045 1.199-0.191v0c0.343-0.17 0.607-0.339 0.793-0.507 0.184-0.159 0.349-0.353 0.497-0.585v0l-0.42-1.275-0.392 0.116c-0.321 0.092-0.566 0.12-0.735 0.084-0.168-0.036-0.303-0.127-0.404-0.271-0.099-0.138-0.239-0.391-0.422-0.758v0l-1.448-2.913c-0.493-0.992-1.059-1.61-1.698-1.855-0.642-0.251-1.351-0.183-2.126 0.203v0c-0.523 0.26-1.027 0.649-1.512 1.167-0.482 0.509-0.839 1.035-1.071 1.578-0.229 0.534-0.26 0.969-0.093 1.306v0c0.218 0.439 0.518 0.65 0.9 0.633 0.39-0.014 0.838-0.147 1.343-0.398v0c-0.23-0.568-0.387-0.996-0.47-1.284-0.077-0.291-0.09-0.529-0.039-0.712 0.051-0.183 0.188-0.33 0.411-0.441v0c0.451-0.224 0.891-0.207 1.319 0.053 0.426 0.253 0.779 0.662 1.06 1.227v0l0.345 0.695c-0.911 0.49-1.616 1.032-2.116 1.625-0.5 0.593-0.8 1.189-0.9 1.786-0.1 0.597-0.022 1.154 0.235 1.672v0c0.299 0.601 0.706 0.976 1.222 1.124 0.516 0.148 1.063 0.079 1.64-0.208zM127.175 166.533l0.928 1.867c-0.088 0.231-0.213 0.454-0.376 0.67-0.157 0.213-0.337 0.37-0.541 0.472v0c-0.271 0.134-0.529 0.15-0.775 0.048-0.246-0.103-0.426-0.268-0.539-0.497v0c-0.176-0.355-0.172-0.747 0.012-1.175 0.178-0.426 0.609-0.887 1.291-1.385z" fill="#4a55a2" data-fill-palette-color="primary"></path><path d="M138.32 164.533l-0.569-1.143-1.432 0.393-2.67-3.674c0.052-0.328 0.159-0.626 0.322-0.893 0.163-0.267 0.371-0.494 0.626-0.68v0c0.342-0.249 0.705-0.321 1.087-0.217 0.373 0.102 0.731 0.39 1.075 0.862v0l2.036 2.803-0.202 0.869 0.664 0.999 3.601-2.616-0.602-1.119-1.473 0.423-2.646-3.642c0.064-0.345 0.163-0.65 0.296-0.912 0.137-0.257 0.338-0.482 0.604-0.676v0c0.353-0.257 0.715-0.329 1.087-0.217 0.372 0.112 0.727 0.401 1.067 0.868v0l2.036 2.803-0.186 0.857 0.68 0.987 3.601-2.616-0.593-1.125-1.498 0.44-2.752-3.788c-0.572-0.788-1.176-1.253-1.812-1.397-0.626-0.142-1.268 0.025-1.925 0.503v0c-0.847 0.616-1.341 1.672-1.483 3.168v0l-0.125 0.066c-0.482-0.389-0.966-0.576-1.454-0.561-0.484 0.02-0.954 0.195-1.41 0.526v0c-0.869 0.631-1.373 1.662-1.513 3.091v0l-0.11 0.055-0.53-1.072-0.42-0.08-2.744 2.442 0.588 1.117 1.665-0.364 3.084 4.245-0.879 1.36 0.591 1.052z" fill="#4a55a2" data-fill-palette-color="primary"></path><path d="M155.69 154.394c0.223-1.376 0.296-2.489 0.22-3.341-0.075-0.842-0.347-1.637-0.815-2.386-0.468-0.74-1.24-1.576-2.315-2.508v0l-5.192-4.558 0.752-1.684-0.78-0.883-4.298 4.91 0.779 0.883 1.675-1.01 6.479 5.671c0.601 0.526 1.064 1.185 1.387 1.977 0.328 0.787 0.493 1.685 0.493 2.693v0z" fill="#4a55a2" data-fill-palette-color="primary"></path><path d="M160.951 142.736c0.515-0.738 0.8-1.517 0.856-2.337 0.055-0.83-0.119-1.63-0.522-2.402-0.407-0.767-1.02-1.436-1.841-2.008v0c-0.826-0.576-1.632-0.929-2.416-1.059-0.78-0.126-1.513-0.02-2.2 0.319-0.689 0.33-1.3 0.878-1.834 1.644v0c-0.453 0.65-0.726 1.393-0.818 2.229-0.098 0.832 0.03 1.658 0.384 2.477 0.348 0.816 0.935 1.511 1.761 2.088v0c0.754 0.526 1.524 0.866 2.309 1.02 0.781 0.16 1.549 0.086 2.304-0.222 0.75-0.312 1.422-0.895 2.017-1.749zM154.088 138.159c0.457-0.655 1.121-0.88 1.992-0.674 0.862 0.208 1.777 0.65 2.746 1.326v0c0.633 0.442 1.053 0.902 1.259 1.382 0.2 0.475 0.141 0.942-0.177 1.398v0c-0.449 0.644-1.081 0.904-1.894 0.779-0.808-0.121-1.721-0.537-2.739-1.247v0c-0.672-0.469-1.123-0.955-1.353-1.459-0.239-0.502-0.184-1.004 0.166-1.505z" fill="#4a55a2" data-fill-palette-color="primary"></path><path d="M154.927 130.952l9.439 4.877c0.415-0.262 0.827-0.65 1.236-1.163 0.412-0.52 0.74-1.016 0.983-1.487v0c0.438-0.847 0.657-1.739 0.658-2.676 0.006-0.934-0.228-1.803-0.704-2.608-0.479-0.814-1.186-1.463-2.123-1.947v0c-0.769-0.398-1.519-0.622-2.247-0.674-0.726-0.058-1.378 0.063-1.955 0.361-0.578 0.299-1.027 0.758-1.347 1.379v0c-0.247 0.477-0.351 0.979-0.313 1.504 0.038 0.526 0.183 1.115 0.436 1.767v0l-0.074 0.098-0.892-0.62-3.633-1.877-0.547 0.182-1.325 3.113 0.998 0.765zM160.215 130.896c-0.221-0.787-0.182-1.469 0.118-2.048v0c0.277-0.537 0.734-0.792 1.37-0.765 0.645 0.024 1.305 0.21 1.979 0.558v0c0.543 0.28 0.972 0.597 1.289 0.949 0.317 0.353 0.513 0.703 0.59 1.053 0.073 0.355 0.031 0.685-0.126 0.989v0c-0.151 0.292-0.348 0.549-0.591 0.772-0.243 0.222-0.507 0.381-0.79 0.476v0z" fill="#4a55a2" data-fill-palette-color="primary"></path><path d="M1.329 93.227c0-3.901 3.162-7.063 7.063-7.063 3.901 0 7.063 3.162 7.063 7.063 0 3.901-3.162 7.063-7.063 7.063-3.901 0-7.063-3.162-7.063-7.063z" fill="#4a55a2" data-fill-palette-color="primary"></path><path d="M164.312 93.227c0-3.901 3.162-7.063 7.063-7.063 3.901 0 7.063 3.162 7.063 7.063 0 3.901-3.162 7.063-7.063 7.063-3.901 0-7.063-3.162-7.063-7.063z" fill="#4a55a2" data-fill-palette-color="primary"></path></g></svg></g></svg></g></svg></g></svg></g></svg></g></svg></g><defs></defs></svg><rect width="320" height="360" fill="none" stroke="none" visibility="hidden"></rect></g></svg></g></svg>