<svg xmlns="http://www.w3.org/2000/svg" width="32" height="32" id="email"><path fill="#f9f9f9" stroke="#a6bcc0" stroke-dashoffset="1.3" stroke-linecap="round" stroke-linejoin="round" d="M25.003 14.007V25h-18V14.007"></path><path fill="#f2f2f2" stroke="#a6bcc0" stroke-dashoffset="1.3" stroke-linecap="round" stroke-linejoin="round" d="m15.987 7-8.984 6.734 8.984 5.6 8.983-5.612z"></path><path fill="#fff593" stroke="#f4ba00" d="M9.003 8.98v6l6.896 4.3h.176l6.928-4.329v-5.97z"></path><path fill="#fff593" stroke="#a6bcc0" stroke-linecap="round" stroke-linejoin="round" d="m7.01 24.996 5.987-3.992m11.99 3.992-5.978-3.992"></path><path fill="none" stroke="#a6bcc0" stroke-dashoffset="1.3" stroke-linecap="round" stroke-linejoin="round" d="m7.003 13.734 8.984 5.6 8.983-5.612"></path><path fill="#f4ba00" d="M12.503 10.469h6.984v1.063h-6.984zM11.503 12.5h9v1.063h-9zM13.503 14.5h5v1.063h-5z"></path><g transform="translate(-5.839 -1367.4)"><ellipse cx="26.921" cy="1378.332" fill="#e5ffd5" stroke="#71c837" stroke-dashoffset="1.3" stroke-linecap="round" stroke-linejoin="round" rx="3.921" ry="3.933"></ellipse><path fill="#d5fff6" stroke="#71c837" stroke-linecap="round" stroke-linejoin="round" d="m28.446 1377.328-2 2.01m0-.007-1.053-1.009"></path></g></svg>