<?xml version="1.0" ?><!DOCTYPE svg  PUBLIC '-//W3C//DTD SVG 1.1//EN'  'http://www.w3.org/Graphics/SVG/1.1/DTD/svg11.dtd'><svg height="100%" style="fill-rule:evenodd;clip-rule:evenodd;stroke-linejoin:round;stroke-miterlimit:2;" version="1.1" viewBox="0 0 129 129" width="100%" xml:space="preserve" xmlns="http://www.w3.org/2000/svg" xmlns:serif="http://www.serif.com/" xmlns:xlink="http://www.w3.org/1999/xlink"><g transform="matrix(1,0,0,1,-473,-508)"><g id="safety-helmet" transform="matrix(1,0,0,1,473.126,508.75)"><rect height="128" style="fill:none;" width="128" x="0" y="0"/><g><g transform="matrix(0.957414,0,0,0.957414,-9878.94,-1973.79)"><path d="M10336.8,2163.55C10336.1,2156.16 10336.1,2146.41 10336.1,2133.57C10336.1,2104.15 10358.9,2080.27 10387.1,2080.27C10415.3,2080.27 10438.2,2104.15 10438.2,2133.57C10438.2,2147.52 10438.2,2157.82 10437.3,2165.43C10444.2,2169.74 10448.8,2177.42 10448.8,2186.18C10448.8,2187.48 10448.8,2188.27 10448.8,2188.27L10321.6,2188.27L10321.6,2186.18C10321.6,2175.95 10327.9,2167.2 10336.8,2163.55Z" style="fill:rgb(244,187,49);"/></g><g transform="matrix(1,0,0,1,-6187.62,-3130.42)"><path d="M6194.66,3247.93C6193.86,3249.12 6193.17,3250.39 6192.6,3251.72L6190.71,3251.72L6190.71,3249.71C6190.71,3240.14 6196.45,3231.92 6204.68,3228.29C6204.7,3229.02 6204.72,3229.73 6204.74,3230.43C6199.07,3234.33 6195.21,3240.67 6194.66,3247.93Z" style="fill:rgb(247,204,101);"/></g><g transform="matrix(1,0,0,1,-6187.62,-3130.42)"><path d="M6302.2,3230.31C6308.43,3234.51 6312.52,3241.63 6312.52,3249.71C6312.52,3250.96 6312.52,3251.72 6312.52,3251.72L6310.63,3251.72C6308.74,3247.31 6305.52,3243.59 6301.49,3241.08C6301.86,3237.98 6302.07,3234.41 6302.2,3230.31Z" style="fill:rgb(247,204,101);"/></g><g transform="matrix(1,0,0,1,-6187.62,-3130.42)"><path d="M6204.59,3209.23C6204.57,3206.17 6204.57,3202.88 6204.57,3199.35C6204.57,3171.18 6226.48,3148.31 6253.47,3148.31C6280.45,3148.31 6302.36,3171.18 6302.36,3199.35C6302.36,3202.89 6302.36,3206.18 6302.35,3209.24C6301.66,3181.69 6280.02,3159.55 6253.47,3159.55C6226.91,3159.55 6205.27,3181.69 6204.59,3209.23Z" style="fill:rgb(247,204,101);"/></g><g transform="matrix(1,0,0,1,-6187.62,-3130.42)"><path d="M6312,3244.77C6312.34,3246.37 6312.52,3248.02 6312.52,3249.71C6312.52,3250.96 6312.52,3251.72 6312.52,3251.72L6190.71,3251.72L6190.71,3249.71C6190.71,3248.02 6190.89,3246.36 6191.23,3244.77L6312,3244.77Z" style="fill:rgb(183,140,37);"/></g><g transform="matrix(0.683748,0,0,0.957414,-7050.11,-1973.79)"><path d="M10336.8,2163.55L10369.5,2163.55" style="fill:none;"/></g><g transform="matrix(0.683748,0,0,0.957414,-7050.11,-1973.79)"><path d="M10336.8,2165.64L10369.5,2165.64C10371.1,2165.64 10372.4,2164.71 10372.4,2163.55C10372.4,2162.4 10371.1,2161.46 10369.5,2161.46L10336.8,2161.46C10335.2,2161.46 10333.8,2162.4 10333.8,2163.55C10333.8,2164.71 10335.2,2165.64 10336.8,2165.64Z" style="fill:rgb(183,140,37);"/></g><g transform="matrix(0.957414,0,0,1.17351,-9875.59,-2418.43)"><path d="M10375.4,2086.28C10378.1,2085.87 10380.8,2085.68 10383.6,2085.68C10392,2085.68 10399.9,2087.39 10406.9,2090.46L10406.9,2121.78L10375.4,2121.78L10375.4,2086.28Z" style="fill:rgb(183,140,37);"/></g><g transform="matrix(0.957414,0,0,1.17351,-9875.59,-2418.43)"><path d="M10375.5,2076.7C10378.2,2076.29 10380.9,2076.1 10383.6,2076.1C10392,2076.1 10399.9,2077.82 10406.9,2080.9L10406.9,2090.46C10399.9,2087.39 10392,2085.68 10383.6,2085.68C10380.8,2085.68 10378.1,2085.87 10375.4,2086.28L10375.4,2077.32L10375.5,2076.7Z" style="fill:rgb(183,140,37);"/></g><g transform="matrix(0.957414,0,0,0.957414,-9884.64,-1973.17)"><path d="M10406.9,2079.44C10406.9,2073.09 10401.7,2067.94 10395.4,2067.94C10392.6,2067.94 10389.7,2067.94 10386.9,2067.94C10380.6,2067.94 10375.4,2073.09 10375.4,2079.44C10375.4,2100.37 10375.4,2142.56 10375.4,2142.56L10406.9,2142.56C10406.9,2142.56 10406.9,2100.37 10406.9,2079.44Z" style="fill:rgb(244,187,49);"/></g><g transform="matrix(1,0,0,1,-6187.62,-3130.42)"><path d="M6245.88,3201.25L6245.88,3148.14C6245.88,3142.27 6250.48,3137.47 6256.27,3137.14C6256.06,3137.13 6255.85,3137.13 6255.64,3137.13C6253.02,3137.13 6250.22,3137.13 6247.59,3137.13C6241.51,3137.13 6236.58,3142.06 6236.58,3148.14C6236.58,3168.18 6236.58,3201.25 6236.58,3201.25L6245.88,3201.25Z" style="fill:rgb(247,204,101);"/></g><g transform="matrix(1,0,0,1,-6187.62,-3130.42)"><path d="M6266.65,3155.77L6266.65,3148.14C6266.65,3145.22 6265.49,3142.42 6263.43,3140.35C6261.36,3138.29 6258.56,3137.13 6255.64,3137.13L6247.59,3137.13C6244.67,3137.13 6241.87,3138.29 6239.81,3140.35C6237.74,3142.42 6236.58,3145.22 6236.58,3148.14L6236.58,3155.77C6236.58,3152.85 6237.74,3150.05 6239.81,3147.98C6241.87,3145.92 6244.67,3144.76 6247.59,3144.76L6255.64,3144.76C6258.56,3144.76 6261.36,3145.92 6263.43,3147.98C6265.49,3150.05 6266.65,3152.85 6266.65,3155.77Z" style="fill:rgb(247,204,101);"/></g><g transform="matrix(0.984348,0,0,1.11375,-10149.3,-2313.73)"><path d="M10437.6,2143.97C10437.6,2140.47 10434.7,2137.48 10430.8,2136.89C10423.6,2135.85 10417.8,2133.88 10413.2,2131.07C10410.5,2129.4 10406.9,2129.37 10404.1,2130.99C10399,2133.97 10393.2,2135.94 10386.7,2136.93C10382.8,2137.54 10380,2140.51 10380,2143.99C10380,2150.88 10380,2160.85 10380,2160.87C10380,2160.87 10380,2160.87 10380,2160.87C10380,2160.88 10380,2169.78 10391.1,2178.78C10399.2,2185.34 10408.8,2186.33 10408.8,2186.33L10408.8,2186.33C10408.8,2186.33 10418.3,2185.34 10426.5,2178.78C10437.6,2169.77 10437.6,2160.87 10437.6,2160.87C10437.6,2160.87 10437.6,2150.86 10437.6,2143.97Z" style="fill:rgb(37,183,54);"/></g><g transform="matrix(0.372338,0,0,0.957414,-3798.42,-1973.79)"><path d="M10336.8,2163.55L10369.5,2163.55" style="fill:none;"/></g><g transform="matrix(0.372338,0,0,0.957414,-3798.42,-1973.79)"><path d="M10336.8,2165.64L10369.5,2165.64C10372.5,2165.64 10374.9,2164.71 10374.9,2163.55C10374.9,2162.4 10372.5,2161.46 10369.5,2161.46L10336.8,2161.46C10333.8,2161.46 10331.4,2162.4 10331.4,2163.55C10331.4,2164.71 10333.8,2165.64 10336.8,2165.64Z" style="fill:rgb(183,140,37);"/></g><g transform="matrix(1,0,0,1,-6187.62,-3130.42)"><path d="M6284.25,3188.76L6284.25,3251.7C6285.23,3251.57 6294.03,3250.2 6301.56,3243.31C6312.52,3233.28 6312.52,3223.35 6312.52,3223.35C6312.52,3223.35 6312.52,3212.21 6312.52,3204.54C6312.52,3200.64 6309.72,3197.31 6305.87,3196.65C6298.74,3195.49 6292.99,3193.3 6288.49,3190.17C6287.22,3189.28 6285.74,3188.81 6284.25,3188.76Z" style="fill:rgb(28,137,40);"/></g><g transform="matrix(0.957414,0,0,0.957414,-9870.22,-1971.93)"><path d="M10420,2146.52C10418.9,2146.52 10417.8,2146.08 10417,2145.3C10416.3,2144.51 10415.8,2143.45 10415.8,2142.34L10415.8,2137.95C10415.8,2135.64 10413.9,2133.77 10411.6,2133.77C10410.6,2133.77 10409.5,2133.77 10408.5,2133.77C10406.2,2133.77 10404.3,2135.64 10404.3,2137.95C10404.3,2139.36 10404.3,2140.93 10404.3,2142.34C10404.3,2143.45 10403.9,2144.51 10403.1,2145.3C10402.3,2146.08 10401.3,2146.52 10400.2,2146.52L10395.8,2146.52C10393.5,2146.52 10391.6,2148.39 10391.6,2150.7C10391.6,2151.72 10391.6,2152.8 10391.6,2153.82C10391.6,2156.13 10393.5,2158 10395.8,2158C10397.2,2158 10398.8,2158 10400.2,2158C10401.3,2158 10402.3,2158.44 10403.1,2159.22C10403.9,2160 10404.3,2161.07 10404.3,2162.17L10404.3,2166.57C10404.3,2168.88 10406.2,2170.75 10408.5,2170.75C10409.5,2170.75 10410.6,2170.75 10411.6,2170.75C10413.9,2170.75 10415.8,2168.88 10415.8,2166.57C10415.8,2165.16 10415.8,2163.59 10415.8,2162.17C10415.8,2161.07 10416.3,2160 10417,2159.22C10417.8,2158.44 10418.9,2158 10420,2158L10424.4,2158C10426.7,2158 10428.6,2156.13 10428.6,2153.82C10428.6,2152.8 10428.6,2151.72 10428.6,2150.7C10428.6,2148.39 10426.7,2146.52 10424.4,2146.52C10423,2146.52 10421.4,2146.52 10420,2146.52Z" style="fill:rgb(200,200,200);"/></g></g></g></g></svg>