<?xml version="1.0" ?><svg enable-background="new 0 0 500 500" id="Layer_1" version="1.1" viewBox="0 0 500 500" xml:space="preserve" xmlns="http://www.w3.org/2000/svg" xmlns:xlink="http://www.w3.org/1999/xlink"><g><path d="M470.52,448.012H29.78c-3.955,0-7.161-3.206-7.161-7.161v-0.826c0-3.955,3.206-7.161,7.161-7.161h440.74   c3.955,0,7.161,3.206,7.161,7.161v0.826C477.68,444.807,474.475,448.012,470.52,448.012z" fill="#E2DEDE"/><g><rect fill="#84B2FC" height="95.997" width="22.388" x="63.583" y="336.869"/><rect fill="#4384EC" height="142.247" width="22.388" x="133.732" y="290.619"/><rect fill="#84B2FC" height="137.651" width="22.388" x="203.881" y="295.214"/><rect fill="#4384EC" height="219.207" width="22.388" x="274.03" y="213.659"/><rect fill="#84B2FC" height="249.057" width="22.388" x="344.179" y="183.808"/><rect fill="#4384EC" height="306.626" width="22.388" x="414.328" y="126.239"/></g><path d="M74.778,313.801c-2.31,0-4.597-1.002-6.165-2.935c-2.76-3.402-2.239-8.398,1.163-11.158l70.148-56.904   c1.756-1.425,4.039-2.033,6.27-1.669l65.062,10.577l67.326-102.842c1.205-1.84,3.119-3.097,5.286-3.472l67.552-11.677   l68.336-72.207c3.012-3.183,8.033-3.32,11.214-0.309c3.182,3.011,3.321,8.032,0.309,11.214l-70.148,74.122   c-1.176,1.243-2.724,2.072-4.41,2.364l-66.752,11.538l-68.26,104.269c-1.718,2.622-4.827,3.987-7.91,3.485l-66.641-10.833   L79.77,312.029C78.3,313.221,76.533,313.801,74.778,313.801z" fill="#3FC18D"/></g></svg>