<svg xmlns="http://www.w3.org/2000/svg" shape-rendering="geometricPrecision" text-rendering="geometricPrecision" image-rendering="optimizeQuality" fill-rule="evenodd" clip-rule="evenodd" viewBox="0 0 305 512.3"><path d="M57.85 0h189.31c15.96 0 30.52 6.51 40.9 16.97C298.58 27.5 305 41.99 305 57.87v396.58c0 15.97-6.5 30.53-16.94 40.89-10.55 10.55-25.03 16.96-40.9 16.96H57.85c-15.97 0-30.53-6.5-40.9-16.96C6.41 484.82 0 470.34 0 454.45V57.78c0-15.96 6.5-30.52 16.95-40.9C27.47 6.35 41.88 0 57.85 0zm57.03 340.99v-6.4c-1.97-.33-5.15-.49-9.55-.49s-9.88.69-16.44 2.07l-2.56-14.57c8.01-2.5 15.75-3.75 23.24-3.75 6.43 0 11.08.4 13.97 1.18 2.89.8 5.03 1.74 6.41 2.86 3.01 2.56 4.52 6.43 4.52 11.62 0 6.56-2.72 11.29-8.17 14.18v.49c6.5 2.69 9.75 7.58 9.75 14.67 0 3.48-.54 6.45-1.63 8.91-1.08 2.46-2.44 4.36-4.08 5.71-1.64 1.35-3.81 2.41-6.5 3.2-4 1.12-9.63 1.68-16.88 1.68-7.26 0-14.53-.86-21.81-2.57l2.75-16.24c6.24 1.51 11.52 2.26 15.86 2.26 4.33 0 8.04-.19 11.12-.59v-6.3l-16.94-1.67v-14.28l16.94-1.97zm29.83 38.2c-1.44-1.5-2.17-4.2-2.17-8.07s.73-6.6 2.17-8.17c1.45-1.58 4.29-2.37 8.52-2.37 4.23 0 7.07.79 8.51 2.37 1.45 1.57 2.17 4.3 2.17 8.17s-.72 6.57-2.17 8.07c-1.44 1.51-4.28 2.27-8.51 2.27-4.23 0-7.07-.76-8.52-2.27zm29.4-5.07c-1.88-2.85-3.17-6.15-3.9-9.89-.72-3.74-1.08-8.45-1.08-14.13 0-5.68.36-10.39 1.08-14.13.73-3.74 2.02-7.04 3.9-9.9 1.86-2.85 4.56-4.93 8.07-6.24 3.51-1.32 7.96-1.98 13.34-1.98s9.81.66 13.29 1.98c3.48 1.31 6.17 3.39 8.07 6.24 1.91 2.86 3.21 6.16 3.89 9.9.69 3.74 1.04 8.47 1.04 14.18 0 5.71-.35 10.42-1.04 14.13-.68 3.71-1.98 6.99-3.89 9.84-1.9 2.86-4.59 4.94-8.07 6.25-3.48 1.32-7.91 1.98-13.29 1.98-5.38 0-9.83-.66-13.34-1.98-3.51-1.31-6.21-3.39-8.07-6.25zm15.3-35.2v27.57h4.14c2.96 0 5.02-.31 6.2-.93 1.18-.63 1.77-2.05 1.77-4.28v-27.57h-4.62c-2.89 0-4.86.29-5.91.88-1.05.59-1.58 2.04-1.58 4.33zm-54.2-214.58c2.79-.56 5.63-.99 8.5-1.27 2.9-.28 5.83-.43 8.79-.43 2.95 0 5.86.15 8.75.43 22.29 2.18 43.45 13.47 57.67 30.78 1.74 2.12 3.37 4.33 4.89 6.62a82.36 82.36 0 0 1 4.3 7.11c6.96 12.87 10.4 26.45 10.4 41.08 0 14.66-3.44 28.32-10.42 41.1-1.33 2.44-2.77 4.8-4.28 7.09-12.39 18.62-32.15 31.64-54.03 36.13-2.78.56-5.62.99-8.49 1.27-2.91.29-5.84.43-8.79.43-2.96 0-5.87-.14-8.76-.43-2.87-.28-5.71-.71-8.52-1.27-21.59-4.23-41.91-17.81-54.03-36.13a85.056 85.056 0 0 1-4.31-7.11c-6.94-12.88-10.4-26.44-10.4-41.08 0-14.65 3.45-28.32 10.43-41.09 1.32-2.45 2.76-4.81 4.28-7.1 12.27-18.57 32.27-31.67 54.02-36.13zm12.97 37.26v-24.19c-4.64 4.09-8.88 8.15-12.74 12.2-3.81 4-7.26 8-10.33 11.99h23.07zm71.35 85.49.16.01c5.99-10.54 9.51-22.01 10.06-34.17h-22.32c-.24 5.83-1.25 11.62-2.98 17.35-1.7 5.62-4.1 11.21-7.2 16.76h22.03c.09 0 .17.02.25.05zm-5.45 8.63h-22.22c-7.62 10.98-17.22 20.71-27.36 29.38l.87-.14c.91-.15 1.83-.32 2.75-.49l.04-.01c16.67-3.39 31.92-12.4 43.07-25.22a64.39 64.39 0 0 0 2.85-3.52zm-73.55 29.37c-10.12-8.66-19.74-18.39-27.34-29.37H91.01c.91 1.21 1.87 2.38 2.86 3.52 11.02 12.66 26.55 22.01 43.1 25.22.92.18 1.84.35 2.74.5l.82.13zm-55.26-38h22.47c-3.1-5.57-5.51-11.18-7.21-16.83-1.72-5.72-2.72-11.49-2.97-17.28H75.25c.68 12.25 3.94 23.44 10.02 34.11zm-10.03-42.75h22.5c.46-5.7 1.65-11.43 3.56-17.18 1.86-5.62 4.42-11.27 7.66-16.93H85.27c-5.96 10.46-9.48 22.03-10.03 34.11zm15.68-42.74h23.55c7.58-10.86 16.89-20.68 26.72-29.52l-1.25.18c-1.02.16-2.02.34-3.01.54l-.02.01c-18.02 3.61-34.86 14.15-45.99 28.79zm72.96-29.45c9.85 8.83 19.09 18.57 26.64 29.45h23.51c-.91-1.21-1.86-2.38-2.86-3.52-11.78-13.62-28.38-22.95-46.15-25.77l-1.14-.16zm55.84 38.08h-23.69c3.24 5.66 5.8 11.31 7.66 16.93 1.91 5.75 3.1 11.48 3.57 17.18h22.48c-.69-12.41-3.93-23.3-10.02-34.11zm-62.91-32.82v24.19h23.07c-6.8-8.84-14.72-16.83-23.07-24.19zm0 32.82v34.11h41.8c-.52-5.53-1.81-11.11-3.88-16.72-2.11-5.75-5.03-11.54-8.77-17.39h-29.15zm0 42.75v34.11h30.43c3.61-5.72 6.38-11.45 8.3-17.18 1.89-5.63 2.98-11.27 3.25-16.93h-41.98zm0 42.74v24.56c4.91-4.08 9.4-8.18 13.47-12.29 4.04-4.08 7.67-8.18 10.87-12.27h-24.34zm-8.63 24.56v-24.56h-24.34c3.18 4.09 6.78 8.18 10.82 12.26 4.07 4.11 8.58 8.21 13.52 12.3zm0-33.19v-34.11H106.2c.28 5.66 1.37 11.3 3.27 16.93 1.93 5.74 4.7 11.47 8.29 17.18h30.42zm0-42.75v-34.11h-29.14c-3.75 5.85-6.67 11.64-8.78 17.39-2.07 5.61-3.35 11.19-3.88 16.72h41.8zm130.25-101.21v314.09a4.04 4.04 0 0 1-4.03 4.04H30.61a4.04 4.04 0 0 1-4.03-4.04V103.13h-.03V77.79c0-6.6 5.39-11.99 11.99-11.99h227.92c6.59 0 11.99 5.39 11.99 11.99v25.34h-.02zM34.64 413.19h235.73V103.13H34.64v310.06zM255.05 79.28c3.26 0 5.91 2.65 5.91 5.92s-2.65 5.92-5.91 5.92c-3.28 0-5.93-2.65-5.93-5.92s2.65-5.92 5.93-5.92zm-40.15 0c3.27 0 5.93 2.65 5.93 5.92s-2.66 5.92-5.93 5.92a5.92 5.92 0 0 1-5.92-5.92 5.92 5.92 0 0 1 5.92-5.92zm20.07 0c3.28 0 5.93 2.65 5.93 5.92s-2.65 5.92-5.93 5.92c-3.26 0-5.92-2.65-5.92-5.92s2.66-5.92 5.92-5.92zM18.42 431.94h268.07V72.86c0-8.55-6.99-15.55-15.54-15.55H33.97c-8.56 0-15.55 7-15.55 15.55v359.08zm134.01 18.11c13.09 0 23.78 10.53 23.78 23.78 0 13.1-10.54 23.79-23.78 23.79-13.09 0-23.8-10.54-23.8-23.79 0-13.08 10.54-23.78 23.8-23.78z"/></svg>