<?xml version="1.0" ?><svg viewBox="0 0 512 512" xmlns="http://www.w3.org/2000/svg"><defs><style>.e{fill:#f4c762;}.f{fill:#318c7a;}.g{fill:#cecece;}.h{fill:#bebebe;}.i{fill:#dfdfdf;}.j{fill:#41a08e;}.k{fill:#365650;}.l{fill:#54aa9a;}.m{fill:#379b88;}.n{fill:#75bbad;}</style></defs><g id="a"/><g id="b"/><g id="c"><g><path class="h" d="M464,56c-10.24463,10.24463-24.1394,16-38.62744,16H86.62744c-14.48804,0-28.38281-5.75537-38.62744-16H24c0,22.09137,17.90869,40,40,40H448c22.09131,0,40-17.90863,40-40h-24Z"/><path class="h" d="M304,440h-96c-17.6731,0-32,14.32684-32,32v16h160v-16c0-17.67316-14.3269-32-32-32Z"/><path class="g" d="M280,408h-48c-8.83643,0-16,7.16345-16,16v16h80v-16c0-8.83655-7.16357-16-16-16Z"/><rect class="i" height="327.99956" width="32" x="240" y="80.00044"/><circle class="n" cx="256" cy="80" r="56"/><polygon class="l" points="235.42857 56 216 80 256 120 296 80 276.57143 56 235.42857 56"/><polygon class="m" points="216 80 296 80 256 120 216 80"/><polygon class="f" points="256 56 240 80 256 120 272 80 256 56"/><path class="g" d="M296,376c0,17.6731,14.3269,32,32,32h128c17.6731,0,32-14.3269,32-32h-192Z"/><path class="e" d="M384,240l-15.19132,5.06377c-5.44706,1.81569-9.5036,6.41087-10.62965,12.04107l-6.17903,30.89515,16,16,8,72h32l8-72,16-16-6.17903-30.89515c-1.12604-5.63021-5.18258-10.22539-10.62965-12.04107l-15.19132-5.06377,.84459-1.68918c4.7056-9.41121,7.15541-19.78875,7.15541-30.3108v-.00003c0-8.83655-7.16344-15.99998-15.99998-15.99998h-.00003c-8.83655,0-15.99998,7.16344-15.99998,15.99998v.00003c0,10.52205,2.44981,20.8996,7.15541,30.3108l.84459,1.68918Z"/><path class="g" d="M24,376c0,17.6731,14.3269,32,32,32H184c17.6731,0,32-14.3269,32-32H24Z"/><path class="e" d="M112,240l-15.19132,5.06377c-5.44706,1.81569-9.5036,6.41087-10.62965,12.04107l-6.17903,30.89515,16,16,8,72h32l8-72,16-16-6.17903-30.89515c-1.12604-5.63021-5.18258-10.22539-10.62965-12.04107l-15.19132-5.06377,.84459-1.68918c4.7056-9.41121,7.15541-19.78875,7.15541-30.3108v-.00003c0-8.83655-7.16344-15.99998-15.99998-15.99998h-.00003c-8.83655,0-15.99998,7.16344-15.99998,15.99998v.00003c0,10.52205,2.44981,20.8996,7.15541,30.3108l.84459,1.68918Z"/><polygon class="j" points="256 56 272 80 240 80 256 56"/><path class="k" d="M276.57129,52h-41.14258c-1.20703,0-2.34961,.54492-3.10938,1.4834l-19.42871,24c-1.28809,1.59082-1.16699,3.89746,.28125,5.34521l40,40c.78027,.78076,1.80469,1.17139,2.82812,1.17139s2.04785-.39062,2.82812-1.17139l40-40c1.44824-1.44775,1.56934-3.75439,.28125-5.34521l-19.42871-24c-.75977-.93848-1.90234-1.4834-3.10938-1.4834Zm11.04419,24h-13.47485l-10.66675-16h11.18921l12.95239,16Zm-50.32349,8l7.75684,19.39185-19.3916-19.39185h11.63477Zm28.80029,0l-10.09229,25.2301-10.09229-25.2301h20.18457Zm-18.61841-8l8.52612-12.78906,8.52612,12.78906h-17.05225Zm27.23413,8h11.63477l-19.3916,19.39185,7.75684-19.39185Zm-37.37109-24h11.18921l-10.66675,16h-13.47485l12.95239-16Z"/><path class="k" d="M491.81641,374.80078L405.45044,100h42.54956c24.26172,0,44-19.73828,44-44,0-2.20898-1.79102-4-4-4h-24c-1.06055,0-2.07812,.42139-2.82812,1.17139-9.5625,9.5625-22.27637,14.82861-35.79883,14.82861h-110.58057c-5.57471-27.35345-29.81714-48-58.79248-48s-53.21777,20.64655-58.79248,48H86.62695c-13.52246,0-26.23633-5.26611-35.79883-14.82861-.75-.75-1.76758-1.17139-2.82812-1.17139H24c-2.20898,0-4,1.79102-4,4,0,24.26172,19.73828,44,44,44h42.54956L20.18359,374.80078l.01807,.00568c-.11938,.37927-.20166,.7749-.20166,1.19354,0,19.85059,16.14941,36,36,36H184c19.85059,0,36-16.14941,36-36,0-.41864-.08228-.81433-.20166-1.1936l.01807-.00562L133.45044,100h65.98999c6.03589,17.01837,19.54126,30.52368,36.55957,36.55969V404h-4c-11.02832,0-20,8.97217-20,20v12h-4c-19.85059,0-36,16.14941-36,36v16c0,2.20898,1.79102,4,4,4h160c2.20898,0,4-1.79102,4-4v-16c0-19.85059-16.14941-36-36-36h-4v-12c0-11.02783-8.97168-20-20-20h-4V136.55969c17.01831-6.03601,30.52368-19.54132,36.55957-36.55969h65.98999l-86.36597,274.80078,.01807,.00568c-.11938,.37927-.20166,.7749-.20166,1.19354,0,19.85059,16.14941,36,36,36h128c19.85059,0,36-16.14941,36-36,0-.41864-.08228-.81433-.20166-1.1936l.01807-.00562Zm-307.81641,29.19922H56c-14.08105,0-25.76855-10.44873-27.71484-24H211.71484c-1.94629,13.55127-13.63379,24-27.71484,24Zm-84.02441-100.44189c-.10059-.90234-.50488-1.74414-1.14746-2.38672l-14.48633-14.48633,5.75879-28.7959c.84277-4.21191,3.89746-7.67236,7.97266-9.03027l15.19141-5.06396c1.10059-.3667,1.9873-1.19287,2.43066-2.26465,.44434-1.07129,.40137-2.28223-.11816-3.31934l-.84375-1.68848c-4.40527-8.81104-6.7334-18.67383-6.7334-28.52246,0-6.6167,5.38281-12,12-12s12,5.3833,12,12c0,9.84863-2.32812,19.71143-6.73242,28.52197l-.84473,1.68896c-.51953,1.03711-.5625,2.24805-.11816,3.31934,.44336,1.07178,1.33008,1.89795,2.43066,2.26465l15.19141,5.06396c4.0752,1.35791,7.12988,4.81836,7.97266,9.03027l5.75879,28.7959-14.48633,14.48633c-.64258,.64258-1.04688,1.48438-1.14746,2.38672l-7.60449,68.44189h-24.83984l-7.60449-68.44189Zm110.57397,68.44189h-70.08032l7.35107-66.16357,15.00781-15.00781c.94629-.9458,1.35645-2.30176,1.09375-3.61328l-6.17871-30.89453c-1.40332-7.02051-6.49512-12.78809-13.28711-15.05176l-10.86621-3.62207c4.2002-9.27637,6.41016-19.46826,6.41016-29.64697,0-11.02783-8.97168-20-20-20s-20,8.97217-20,20c0,10.17871,2.20898,20.37012,6.41016,29.64697l-10.86621,3.62207c-6.79199,2.26367-11.88379,8.03125-13.28711,15.05176l-6.17871,30.89453c-.2627,1.31152,.14746,2.66748,1.09375,3.61328l15.00781,15.00781,7.35107,66.16357H29.45044L114.93604,100h10.12793l85.4856,272ZM64,92c-18.49805,0-33.7832-14.02539-35.7793-32h18.15527c10.92578,10.33154,25.15332,16,40.25098,16h109.52124c-.08765,1.32367-.14819,2.65454-.14819,4,0,4.10858,.41699,8.1214,1.20752,12H64ZM332,472v12H180v-12c0-15.43945,12.56055-28,28-28h96c15.43945,0,28,12.56055,28,28Zm-40-48v12h-72v-12c0-6.6167,5.38281-12,12-12h48c6.61719,0,12,5.3833,12,12Zm-24-20h-24V138.79254c3.87866,.79047,7.89136,1.20746,12,1.20746s8.12134-.41699,12-1.20746V404Zm-12-272c-28.67285,0-52-23.32715-52-52s23.32715-52,52-52,52,23.32715,52,52-23.32715,52-52,52Zm59.85181-56h109.52124c15.09766,0,29.3252-5.66846,40.25098-16h18.15527c-1.99609,17.97461-17.28125,32-35.7793,32h-133.20752c.79053-3.8786,1.20752-7.89142,1.20752-12,0-1.34546-.06055-2.67633-.14819-4Zm81.21216,24l85.4856,272h-70.08032l7.35107-66.16357,15.00781-15.00781c.94629-.9458,1.35645-2.30176,1.09375-3.61328l-6.17871-30.89453c-1.40332-7.02051-6.49512-12.78809-13.28711-15.05176l-10.86621-3.62207c4.2002-9.27637,6.41016-19.46826,6.41016-29.64697,0-11.02783-8.97168-20-20-20s-20,8.97217-20,20c0,10.17871,2.20898,20.37012,6.41016,29.64697l-10.86621,3.62207c-6.79199,2.26367-11.88379,8.03125-13.28711,15.05176l-6.17871,30.89453c-.2627,1.31152,.14746,2.66748,1.09375,3.61328l15.00781,15.00781,7.35107,66.16357h-70.08032L386.93604,100h10.12793Zm-25.08838,203.55811c-.10059-.90234-.50488-1.74414-1.14746-2.38672l-14.48633-14.48633,5.75879-28.7959c.84277-4.21191,3.89746-7.67236,7.97266-9.03027l15.19141-5.06396c1.10059-.3667,1.9873-1.19287,2.43066-2.26465,.44434-1.07129,.40137-2.28223-.11816-3.31934l-.84375-1.68848c-4.40527-8.81104-6.7334-18.67383-6.7334-28.52246,0-6.6167,5.38281-12,12-12s12,5.3833,12,12c0,9.84863-2.32812,19.71143-6.73242,28.52197l-.84473,1.68896c-.51953,1.03711-.5625,2.24805-.11816,3.31934,.44336,1.07178,1.33008,1.89795,2.43066,2.26465l15.19141,5.06396c4.0752,1.35791,7.12988,4.81836,7.97266,9.03027l5.75879,28.7959-14.48633,14.48633c-.64258,.64258-1.04688,1.48438-1.14746,2.38672l-7.60449,68.44189h-24.83984l-7.60449-68.44189Zm84.02441,100.44189h-128c-14.08105,0-25.76855-10.44873-27.71484-24h183.42969c-1.94629,13.55127-13.63379,24-27.71484,24Z"/></g></g><g id="d"/></svg>