<?xml version="1.0" ?><svg viewBox="0 0 64 64" xmlns="http://www.w3.org/2000/svg"><defs><style>.cls-1{fill:#94a1b2;}.cls-2{fill:#f64f7d;}.cls-2,.cls-3,.cls-5,.cls-7{fill-rule:evenodd;}.cls-3{fill:#f8e157;}.cls-4{fill:#4f9ff6;}.cls-5{fill:#5e697b;}.cls-6,.cls-7{fill:#e43b74;}.cls-8{fill:#f4b948;}</style></defs><g id="Graph"><path class="cls-1" d="M5.89,53.31H58.11A1.89,1.89,0,0,1,60,55.19v.16a1.88,1.88,0,0,1-1.88,1.88H5.89A1.89,1.89,0,0,1,4,55.36v-.16a1.89,1.89,0,0,1,1.89-1.89Z"/><path class="cls-2" d="M23.78,40.15H17.44a1.85,1.85,0,0,0-1.33.56A1.88,1.88,0,0,0,15.56,42V53.31h8.22Z"/><path class="cls-3" d="M32,36.15H25.66a1.85,1.85,0,0,0-1.33.56A1.88,1.88,0,0,0,23.78,38V53.31H32Z"/><path class="cls-2" d="M40.22,32.15H33.89A1.89,1.89,0,0,0,32,34V53.31h8.22Z"/><path class="cls-3" d="M48.44,28.15H42.11A1.89,1.89,0,0,0,40.22,30V53.31h8.22Z"/><path class="cls-3" d="M15.56,44.15H9.22A1.91,1.91,0,0,0,7.33,46v7.27h8.23Z"/><path class="cls-2" d="M56.67,26a1.91,1.91,0,0,0-1.89-1.89H50.33A1.89,1.89,0,0,0,48.44,26V53.31h8.23Z"/><path class="cls-4" d="M42.71,14.58a1.65,1.65,0,0,0-1-.75l-7.28-1.95a1.66,1.66,0,1,0-.86,3.21l3.3.89L6.49,33.52a1.73,1.73,0,1,0,1.73,3L38.61,19l-.89,3.3a1.67,1.67,0,1,0,3.22.86l2-7.27A1.71,1.71,0,0,0,42.71,14.58Z"/><path class="cls-5" d="M60,55.19a1.88,1.88,0,0,0-1.89-1.88H52.55v3.93h5.56A1.88,1.88,0,0,0,60,55.36Z"/><rect class="cls-6" height="13.15" width="4.11" x="19.67" y="40.15"/><rect class="cls-6" height="21.15" width="4.11" x="36.11" y="32.15"/><path class="cls-7" d="M56.67,26a1.91,1.91,0,0,0-1.89-1.89H52.55V53.31h4.12Z"/><rect class="cls-8" height="17.15" width="4.11" x="27.89" y="36.15"/><rect class="cls-8" height="25.15" width="4.11" x="44.33" y="28.15"/><rect class="cls-8" height="9.15" width="4.11" x="11.45" y="44.15"/><path class="cls-3" d="M51.14,8.13V7.76a1,1,0,1,1,2,0v.37a3,3,0,0,1,1,.65,1,1,0,0,1-1.42,1.42.82.82,0,0,0-.59-.25.84.84,0,0,0-.83.84.83.83,0,0,0,.83.83,2.84,2.84,0,0,1,1,5.49v.37a1,1,0,1,1-2,0v-.37a2.93,2.93,0,0,1-1-.65A1,1,0,0,1,51.56,15a.75.75,0,0,0,.51.24h.15a.83.83,0,0,0-.08-1.66,2.84,2.84,0,0,1-1-5.49Z"/></g></svg>